<svg width="500" height="500" viewBox="0 0 500 500" fill="none" xmlns="http://www.w3.org/2000/svg">
<path fill-rule="evenodd" clip-rule="evenodd" d="M346.667 315.208L362.083 289.167H435.625L458.333 250L412.917 171.875H348.958L326.875 133.125H302.083V106.875H342.5L364.583 145.833H397.708L352.083 67.7083H263.125V171.875H299.167L314.375 197.917H263.125V250H310.208L332.083 211.042H390.625L405.625 237.083H347.292L325.417 276.042H263.125V367.292H333.958L318.958 393.333H263.125V432.292H352.083L420.417 315.208H376.875L361.667 341.25H302.083V315.208H346.667Z" fill="#4285F4"/>
<path fill-rule="evenodd" clip-rule="evenodd" d="M153.333 315.208L137.917 289.167H64.375L41.6667 250L87.0833 171.875H151.042L173.125 133.125H197.917V106.875H157.5L135.417 145.833H102.292L147.917 67.7083H237.083V171.875H200.833L185.625 197.917H237.083V250H189.792L167.917 211.042H109.375L94.375 237.083H152.708L174.583 276.042H237.083V367.292H166.042L181.042 393.333H237.083V432.292H147.917L79.5833 315.208H123.125L138.333 341.25H197.917V315.208H153.333Z" fill="#669DF6"/>
</svg>
