<svg width="500" height="500" viewBox="0 0 500 500" fill="none" xmlns="http://www.w3.org/2000/svg">
<path d="M291.667 354.167H208.333V437.5H291.667V354.167Z" fill="#4285F4"/>
<path fill-rule="evenodd" clip-rule="evenodd" d="M395.833 225.833L305.417 135.625L284.375 156.667L395.833 267.708V225.833Z" fill="#669DF6"/>
<path fill-rule="evenodd" clip-rule="evenodd" d="M326.458 198.542L284.375 156.667L305.417 135.625L326.458 156.667V198.542Z" fill="#4285F4"/>
<path fill-rule="evenodd" clip-rule="evenodd" d="M227.917 255L206.875 233.958L305.417 135.625L326.458 156.667L227.917 255Z" fill="#AECBFA"/>
<path fill-rule="evenodd" clip-rule="evenodd" d="M227.917 255L168.333 195.625L189.583 174.583L248.958 233.958L227.917 255Z" fill="#669DF6"/>
<path fill-rule="evenodd" clip-rule="evenodd" d="M210 237.083L168.333 195.625L189.583 174.583L210 195V237.083Z" fill="#4285F4"/>
<path fill-rule="evenodd" clip-rule="evenodd" d="M113.333 291.458L210 195L188.958 173.958L104.167 258.542V291.458H113.333Z" fill="#AECBFA"/>
<path fill-rule="evenodd" clip-rule="evenodd" d="M458.333 84.375C457.398 79.193 454.901 74.4206 451.178 70.6972C447.454 66.9737 442.682 64.477 437.5 63.5416H62.5C57.318 64.477 52.5456 66.9737 48.8222 70.6972C45.0988 74.4206 42.6021 79.193 41.6667 84.375V354.167C42.4545 359.411 44.9031 364.264 48.6529 368.014C52.4026 371.764 57.2559 374.212 62.5 375H437.5C442.744 374.212 447.597 371.764 451.347 368.014C455.097 364.264 457.545 359.411 458.333 354.167V84.375ZM416.667 333.333H83.3333V104.167H416.667V333.333Z" fill="#669DF6"/>
<path fill-rule="evenodd" clip-rule="evenodd" d="M166.667 458.333C166.667 443.958 173.125 437.5 187.5 437.5H312.5C326.875 437.5 333.333 443.958 333.333 458.333H166.667Z" fill="#669DF6"/>
</svg>
